<mxfile host="app.diagrams.net" agent="Mozilla/5.0 (Windows NT 10.0; Win64; x64) AppleWebKit/537.36 (KHTML, like Gecko) Chrome/138.0.0.0 Safari/537.36" version="27.2.0">
  <diagram name="第 1 页" id="4IonkcLgdpNc1y5kF-Uf">
    <mxGraphModel dx="2253" dy="743" grid="1" gridSize="10" guides="1" tooltips="1" connect="1" arrows="1" fold="1" page="1" pageScale="1" pageWidth="827" pageHeight="1169" math="0" shadow="0">
      <root>
        <mxCell id="0" />
        <mxCell id="1" parent="0" />
        <mxCell id="vj-_aE5Fy5tXKld0EFDE-1" value="Tibame" style="rounded=1;whiteSpace=wrap;html=1;" parent="1" vertex="1">
          <mxGeometry x="354" y="150" width="120" height="60" as="geometry" />
        </mxCell>
        <mxCell id="OP8Zx7TZnXacYfXv5dEU-1" value="1. 在自己的VS Code內創建Tibame資料夾" style="text;html=1;align=left;verticalAlign=middle;resizable=0;points=[];autosize=1;strokeColor=none;fillColor=none;" parent="1" vertex="1">
          <mxGeometry x="90" y="165" width="240" height="30" as="geometry" />
        </mxCell>
        <mxCell id="OP8Zx7TZnXacYfXv5dEU-3" value="&lt;div&gt;1. 移動路徑: &lt;br&gt;&lt;span style=&quot;white-space: pre;&quot;&gt;&#x9;&lt;/span&gt;cd Tibame&lt;br&gt;&lt;br&gt;&lt;/div&gt;&lt;div&gt;2. 進入Tibame: &lt;br&gt;&lt;span style=&quot;white-space: pre;&quot;&gt;&#x9;&lt;/span&gt;code .&lt;br&gt;&lt;br&gt;&lt;/div&gt;&lt;div&gt;3. 在Tibame路徑下抓取repo:&amp;nbsp;&lt;br&gt;&lt;span style=&quot;background-color: transparent; color: light-dark(rgb(0, 0, 0), rgb(255, 255, 255));&quot;&gt;&lt;span style=&quot;white-space: pre;&quot;&gt;&#x9;&lt;/span&gt;git clone https://github.com/TibameSam/crawler&lt;br&gt;&lt;br&gt;&lt;/span&gt;&lt;/div&gt;&lt;div&gt;4. 建立此虛擬環境(一次即可): &lt;br&gt;&lt;span style=&quot;white-space: pre;&quot;&gt;&#x9;&lt;/span&gt;pipenv sync&amp;nbsp;&lt;/div&gt;" style="text;html=1;align=left;verticalAlign=middle;resizable=0;points=[];autosize=1;strokeColor=none;fillColor=none;" parent="1" vertex="1">
          <mxGeometry x="-380" y="240" width="300" height="170" as="geometry" />
        </mxCell>
        <mxCell id="OP8Zx7TZnXacYfXv5dEU-4" value="crawler" style="rounded=1;whiteSpace=wrap;html=1;" parent="1" vertex="1">
          <mxGeometry y="295" width="120" height="60" as="geometry" />
        </mxCell>
        <mxCell id="QD5_IqnsALxZoc4lZ5cn-1" value="rabbitmq.yml" style="rounded=0;whiteSpace=wrap;html=1;" vertex="1" parent="1">
          <mxGeometry x="-360" y="500" width="120" height="60" as="geometry" />
        </mxCell>
        <mxCell id="QD5_IqnsALxZoc4lZ5cn-2" value="image: rabbitmq" style="shape=cube;whiteSpace=wrap;html=1;boundedLbl=1;backgroundOutline=1;darkOpacity=0.05;darkOpacity2=0.1;" vertex="1" parent="1">
          <mxGeometry x="-480" y="600" width="120" height="80" as="geometry" />
        </mxCell>
        <mxCell id="QD5_IqnsALxZoc4lZ5cn-3" value="image: mher/flower" style="shape=cube;whiteSpace=wrap;html=1;boundedLbl=1;backgroundOutline=1;darkOpacity=0.05;darkOpacity2=0.1;" vertex="1" parent="1">
          <mxGeometry x="-250" y="600" width="120" height="80" as="geometry" />
        </mxCell>
        <mxCell id="QD5_IqnsALxZoc4lZ5cn-5" value="" style="endArrow=classic;html=1;rounded=0;entryX=0.5;entryY=0;entryDx=0;entryDy=0;exitX=0.5;exitY=1;exitDx=0;exitDy=0;" edge="1" parent="1" source="vj-_aE5Fy5tXKld0EFDE-1" target="OP8Zx7TZnXacYfXv5dEU-4">
          <mxGeometry width="50" height="50" relative="1" as="geometry">
            <mxPoint x="250" y="380" as="sourcePoint" />
            <mxPoint x="300" y="330" as="targetPoint" />
            <Array as="points">
              <mxPoint x="414" y="250" />
              <mxPoint x="60" y="250" />
            </Array>
          </mxGeometry>
        </mxCell>
      </root>
    </mxGraphModel>
  </diagram>
</mxfile>
